<?xml version="1.0" standalone="no"?>
<!DOCTYPE svg PUBLIC "-//W3C//DTD SVG 20010904//EN"
 "http://www.w3.org/TR/2001/REC-SVG-20010904/DTD/svg10.dtd">
<svg version="1.0" xmlns="http://www.w3.org/2000/svg"
 width="1241.000000pt" height="1241.000000pt" viewBox="0 0 1241.000000 1241.000000"
 preserveAspectRatio="xMidYMid meet">
<metadata>
Created by potrace 1.11, written by Peter Selinger 2001-2013
</metadata>
<g transform="translate(0.000000,1241.000000) scale(0.100000,-0.100000)"
fill="#000000" stroke="none">
<path d="M5957 12114 c-1 -1 -51 -5 -112 -8 -159 -9 -296 -23 -510 -52 -408
-55 -945 -201 -1353 -368 -332 -136 -559 -251 -889 -450 -247 -150 -629 -436
-858 -645 -93 -85 -380 -376 -450 -456 -39 -44 -75 -85 -81 -91 -5 -6 -26 -31
-45 -54 -18 -23 -49 -61 -68 -84 -65 -79 -228 -302 -308 -421 -86 -129 -136
-209 -196 -315 -8 -14 -31 -54 -52 -90 -115 -200 -286 -572 -372 -810 -24 -69
-49 -134 -53 -145 -8 -18 -18 -49 -79 -245 -11 -36 -22 -77 -25 -90 -3 -14
-17 -70 -31 -125 -27 -103 -69 -293 -80 -355 -3 -19 -12 -71 -20 -115 -8 -44
-17 -102 -20 -130 -4 -27 -8 -61 -10 -75 -2 -14 -7 -52 -10 -85 -4 -33 -8 -71
-10 -85 -4 -28 -12 -117 -21 -235 -9 -126 -12 -613 -4 -648 l8 -32 1 37 c2 55
38 256 66 369 23 92 92 306 114 354 5 11 32 76 61 145 89 212 210 437 342 633
41 61 207 287 218 297 3 3 35 40 70 83 132 159 418 419 600 546 232 162 594
368 860 490 41 19 107 49 145 67 182 83 425 176 640 244 192 61 209 66 345 95
69 14 258 60 420 100 254 63 412 99 535 120 17 2 41 7 55 10 13 2 40 7 60 10
40 6 72 12 112 20 15 4 41 8 58 10 52 7 154 27 167 34 6 3 60 51 119 106 233
218 301 265 624 428 96 49 230 118 297 154 205 108 304 137 380 112 57 -18 64
-40 42 -119 -10 -38 -43 -131 -73 -207 -46 -119 -75 -199 -141 -388 -20 -59
-36 -121 -42 -172 -5 -43 -4 -45 47 -91 29 -26 70 -63 90 -82 20 -19 79 -73
130 -120 94 -86 106 -96 216 -199 33 -31 107 -99 163 -151 168 -154 361 -350
537 -545 45 -50 132 -146 194 -215 62 -69 136 -150 165 -180 86 -92 359 -390
490 -535 107 -118 111 -123 177 -196 31 -35 67 -75 80 -90 12 -14 57 -63 98
-108 41 -46 80 -89 85 -95 6 -6 46 -51 90 -101 44 -49 101 -112 126 -140 26
-27 78 -86 115 -130 38 -44 165 -190 283 -325 267 -306 301 -345 391 -450 40
-47 93 -109 119 -139 25 -29 55 -65 66 -79 11 -14 34 -42 51 -61 17 -20 57
-70 90 -111 32 -41 61 -77 64 -80 3 -3 30 -36 61 -75 140 -176 180 -289 155
-440 -19 -116 -105 -328 -194 -480 -80 -135 -269 -358 -362 -427 -75 -56 -232
-119 -297 -120 -17 0 -62 16 -100 35 -59 30 -410 230 -485 276 -58 35 -221
138 -261 163 -23 15 -49 31 -57 35 -8 4 -35 21 -60 38 -119 82 -473 299 -637
390 -24 14 -117 69 -205 122 -89 53 -200 111 -251 130 -99 37 -85 36 -372 33
-138 -2 -186 1 -330 16 -88 9 -128 15 -230 36 -55 11 -113 22 -130 25 -37 6
-314 76 -410 104 -214 62 -556 192 -764 290 -68 33 -129 59 -136 59 -14 0
-139 -129 -203 -208 -20 -26 -67 -83 -103 -127 -198 -240 -328 -443 -468 -730
-122 -249 -146 -302 -230 -515 -34 -85 -66 -164 -71 -175 -20 -46 -163 -464
-175 -515 -2 -8 -22 -78 -45 -155 -22 -77 -42 -147 -43 -155 -1 -8 -6 -21 -10
-27 -5 -7 -6 -13 -3 -13 2 0 0 -15 -5 -32 -13 -45 -137 -537 -143 -568 -2 -14
-11 -56 -19 -95 -9 -38 -18 -86 -21 -105 -3 -19 -7 -44 -10 -55 -42 -206 -69
-489 -70 -725 -1 -119 10 -350 17 -356 1 -1 43 -21 92 -44 297 -139 645 -269
950 -355 162 -45 398 -101 470 -111 17 -2 41 -6 55 -9 14 -3 40 -8 59 -11 18
-3 43 -7 54 -10 11 -2 57 -8 101 -14 45 -6 92 -13 106 -15 14 -2 57 -6 95 -10
39 -4 84 -8 100 -10 219 -26 724 -26 1070 0 61 4 268 29 338 41 15 2 39 6 55
8 237 38 471 89 672 147 74 22 142 41 150 43 28 7 255 85 320 109 92 35 172
66 195 77 11 5 88 39 170 75 386 172 760 394 1117 662 79 59 154 117 168 129
14 12 73 63 132 113 118 100 121 103 264 242 130 127 245 246 324 339 36 41
67 77 70 80 19 18 151 185 228 288 414 553 741 1206 927 1847 88 306 160 641
190 891 3 22 7 50 10 64 2 14 7 57 10 96 3 39 7 80 9 90 26 136 27 866 1 1084
-2 19 -7 60 -10 90 -11 99 -24 207 -30 240 -3 14 -7 41 -10 60 -152 975 -571
1938 -1174 2704 -44 56 -59 74 -161 196 -85 102 -145 166 -325 345 -236 235
-335 324 -530 475 -38 30 -72 57 -75 61 -9 11 -355 251 -370 257 -8 3 -17 8
-20 12 -3 3 -41 28 -85 55 -477 288 -936 490 -1452 640 -83 25 -162 47 -175
49 -13 3 -43 10 -68 17 -25 6 -52 12 -60 14 -8 2 -35 8 -60 14 -25 5 -61 13
-80 16 -19 3 -42 8 -50 10 -17 5 -38 9 -160 29 -95 17 -121 20 -235 35 -134
17 -186 23 -244 26 -31 2 -94 7 -141 10 -80 7 -607 14 -613 9z"/>
</g>
</svg>
