<?xml version="1.0" encoding="utf-8"?>
<!-- Generator: Adobe Illustrator 20.1.0, SVG Export Plug-In . SVG Version: 6.00 Build 0)  -->
<svg version="1.1" id="Layer_1" xmlns="http://www.w3.org/2000/svg" xmlns:xlink="http://www.w3.org/1999/xlink" x="0px" y="0px"
	 viewBox="0 0 141.7 141.7" style="enable-background:new 0 0 141.7 141.7;" xml:space="preserve">
<style type="text/css">
	.st0{fill-rule:evenodd;clip-rule:evenodd;fill:#3C5494;}
	.st1{fill:#3C5494;}
	.st2{opacity:0.1;}
	.st3{fill-rule:evenodd;clip-rule:evenodd;fill:#13110C;}
	.st4{fill:#13110C;}
	.st5{clip-path:url(#SVGID_2_);fill-rule:evenodd;clip-rule:evenodd;fill:#FFFFFF;}
</style>
<image style="display:none;overflow:visible;" width="640" height="1136" xlink:href="7E70EB334C2CAE6A.jpg"  transform="matrix(0 -0.9384 0.9384 0 -462.1656 370.8651)">
</image>
<g>
	<polygon class="st0" points="121.3,99.9 70.9,129 20.5,99.9 20.5,41.7 70.9,12.6 121.3,41.7 	"/>
	<path class="st1" d="M70.9,132.5c-0.6,0-1.2-0.2-1.8-0.5l-50.4-29.1c-1.1-0.6-1.8-1.8-1.8-3.1V41.7c0-1.3,0.7-2.4,1.8-3.1L69.1,9.5
		c1.1-0.6,2.4-0.6,3.5,0L123,38.6c1.1,0.6,1.8,1.8,1.8,3.1v58.2c0,1.3-0.7,2.4-1.8,3.1L72.6,132C72.1,132.3,71.5,132.5,70.9,132.5z
		 M24,97.8l46.9,27.1l46.9-27.1V43.7L70.9,16.6L24,43.7V97.8z"/>
</g>
<g class="st2">
	<polyline class="st3" points="121.3,41.6 121.3,99.8 70.9,128.9 20.5,99.8 	"/>
	<path class="st4" d="M123.4,38.8c1.1,0.6,1.4,1.8,1.4,3.1v58.2c0,1.3-0.7,2.4-1.8,3.1l-50.4,29.1c-0.5,0.3-1.2,0.5-1.8,0.5
		c-0.6,0-1.2-0.2-1.8-0.5l-50.4-29.1c-1.1-0.6-1.8-1.8-1.8-3.1 M24,98l46.9,27.1L117.7,98V43.9"/>
</g>
<g>
	<defs>
		<path id="SVGID_1_" d="M75.9,104.1v-33h9.1l1.2-11.4H75.9l0-5.7c0-3,0.3-4.6,4.5-4.6h5.7V38.2h-9.1c-10.9,0-14.8,5.5-14.8,14.8
			v6.8h-6.8v11.4h6.8v33H75.9z"/>
	</defs>
	<clipPath id="SVGID_2_">
		<use xlink:href="#SVGID_1_"  style="overflow:visible;"/>
	</clipPath>
	<rect x="45.4" y="28.1" class="st5" width="51" height="86.2"/>
</g>
<g>
</g>
<g>
</g>
<g>
</g>
<g>
</g>
<g>
</g>
<g>
</g>
</svg>
