<?xml version="1.0" encoding="utf-8"?>
<!-- Generator: Adobe Illustrator 20.1.0, SVG Export Plug-In . SVG Version: 6.00 Build 0)  -->
<svg version="1.1" id="Layer_1" xmlns="http://www.w3.org/2000/svg" xmlns:xlink="http://www.w3.org/1999/xlink" x="0px" y="0px"
	 viewBox="0 0 141.7 141.7" style="enable-background:new 0 0 141.7 141.7;" xml:space="preserve">
<style type="text/css">
	.st0{fill-rule:evenodd;clip-rule:evenodd;fill:#5180A7;}
	.st1{fill:#5180A7;}
	.st2{opacity:0.1;}
	.st3{fill-rule:evenodd;clip-rule:evenodd;fill:#13110C;}
	.st4{fill:#13110C;}
	.st5{clip-path:url(#SVGID_2_);fill-rule:evenodd;clip-rule:evenodd;fill:#FFFFFF;}
</style>
<image style="display:none;overflow:visible;" width="640" height="1136" xlink:href="9BCE22BB66F9493E.jpg"  transform="matrix(0 -0.9384 0.9384 0 -462.1656 370.8651)">
</image>
<g>
	<g>
		<polygon class="st0" points="121.3,99.9 70.9,129 20.5,99.9 20.5,41.7 70.9,12.6 121.3,41.7 		"/>
		<path class="st1" d="M70.9,132.5c-0.6,0-1.2-0.2-1.8-0.5l-50.4-29.1c-1.1-0.6-1.8-1.8-1.8-3.1V41.7c0-1.3,0.7-2.4,1.8-3.1
			L69.1,9.5c1.1-0.6,2.4-0.6,3.5,0L123,38.6c1.1,0.6,1.8,1.8,1.8,3.1v58.2c0,1.3-0.7,2.4-1.8,3.1L72.6,132
			C72.1,132.3,71.5,132.5,70.9,132.5z M24,97.8l46.9,27.1l46.9-27.1V43.7L70.9,16.6L24,43.7V97.8z"/>
	</g>
	<g class="st2">
		<polyline class="st3" points="121.3,41.6 121.3,99.8 70.9,128.9 20.5,99.8 		"/>
		<path class="st4" d="M123.4,38.8c1.1,0.6,1.4,1.8,1.4,3.1v58.2c0,1.3-0.7,2.4-1.8,3.1l-50.4,29.1c-0.5,0.3-1.2,0.5-1.8,0.5
			c-0.6,0-1.2-0.2-1.8-0.5l-50.4-29.1c-1.1-0.6-1.8-1.8-1.8-3.1 M24,98l46.9,27.1L117.7,98V43.9"/>
	</g>
</g>
<g>
	<defs>
		<path id="SVGID_1_" d="M86.5,60.1c0.9,0,1.7-0.8,1.7-1.8c0-1.4,0-2.8,0-4.2c0-1-0.8-1.8-1.8-1.8c-1.4,0-2.8,0-4.2,0
			c-1,0-1.8,0.8-1.8,1.8c0,1.4,0,2.8,0,4.2c0,0.2,0,0.4,0.1,0.6c0.3,0.7,0.9,1.2,1.8,1.2c0.7,0,1.3,0,2,0
			C85.1,60.1,85.8,60.1,86.5,60.1z M61.9,70.7c-0.1,5,4,9,8.8,9.1c5,0.1,9.1-3.9,9.2-8.8c0.1-5-4-9.2-9-9.2
			C65.9,61.9,62,65.8,61.9,70.7z M89.3,92.9c-0.2,0.1-0.5,0.1-0.7,0.1H53.1c-0.1,0-0.2,0-0.3,0c-2-0.2-3.6-1.7-4-3.7
			c0-0.2-0.1-0.4-0.1-0.7V53.1c0-0.1,0-0.2,0-0.2c0.3-2,1.7-3.6,3.7-4c0.2,0,0.4-0.1,0.6-0.1h35.6c0.1,0,0.2,0,0.2,0
			c2,0.3,3.7,1.8,4,3.8c0,0.2,0.1,0.4,0.1,0.6v35.4c0,0.2-0.1,0.4-0.1,0.6C92.6,91,91.1,92.5,89.3,92.9z M53.5,66.8
			c0,6.6,0,13.1,0,19.7c0,0.9,0.8,1.8,1.8,1.8c10.4,0,20.8,0,31.2,0c0.9,0,1.8-0.8,1.8-1.8c0-6.5,0-13.1,0-19.6v-0.1H84
			c0.6,1.9,0.8,3.8,0.5,5.8c-0.2,2-0.9,3.8-1.9,5.5c-1,1.7-2.4,3.1-4,4.2c-4.3,2.9-9.9,3.2-14.5,0.6c-2.3-1.3-4.1-3.1-5.4-5.4
			c-1.9-3.4-2.2-7.1-1.1-10.8c-1.4,0-2.8,0-4.2,0V66.8z"/>
	</defs>
	<clipPath id="SVGID_2_">
		<use xlink:href="#SVGID_1_"  style="overflow:visible;"/>
	</clipPath>
	<rect x="41.4" y="41.5" class="st5" width="58.9" height="58.8"/>
</g>
<g>
</g>
<g>
</g>
<g>
</g>
<g>
</g>
<g>
</g>
<g>
</g>
</svg>
