<?xml version="1.0" encoding="utf-8"?>
<!-- Generator: Adobe Illustrator 20.1.0, SVG Export Plug-In . SVG Version: 6.00 Build 0)  -->
<svg version="1.1" id="Layer_1" xmlns="http://www.w3.org/2000/svg" xmlns:xlink="http://www.w3.org/1999/xlink" x="0px" y="0px"
	 viewBox="0 0 141.7 141.7" style="enable-background:new 0 0 141.7 141.7;" xml:space="preserve">
<style type="text/css">
	.st0{fill-rule:evenodd;clip-rule:evenodd;fill:#6397D0;}
	.st1{fill:#6397D0;}
	.st2{opacity:0.1;}
	.st3{fill-rule:evenodd;clip-rule:evenodd;fill:#13110C;}
	.st4{fill:#13110C;}
	.st5{clip-path:url(#SVGID_2_);fill-rule:evenodd;clip-rule:evenodd;fill:#FFFFFF;}
</style>
<image style="display:none;overflow:visible;" width="640" height="1136" xlink:href="FAB77ECF53852652.jpg"  transform="matrix(0 -0.9384 0.9384 0 -462.1656 370.8651)">
</image>
<g>
	<polygon class="st0" points="121.3,100.4 70.9,129.5 20.5,100.4 20.5,42.2 70.9,13.1 121.3,42.2 	"/>
	<path class="st1" d="M70.9,133c-0.6,0-1.2-0.2-1.8-0.5l-50.4-29.1c-1.1-0.6-1.8-1.8-1.8-3.1V42.2c0-1.3,0.7-2.4,1.8-3.1l50.4-29.1
		c1.1-0.6,2.4-0.6,3.5,0L123,39.2c1.1,0.6,1.8,1.8,1.8,3.1v58.2c0,1.3-0.7,2.4-1.8,3.1l-50.4,29.1C72.1,132.9,71.5,133,70.9,133z
		 M24,98.4l46.9,27.1l46.9-27.1V44.3L70.9,17.2L24,44.3V98.4z"/>
</g>
<g class="st2">
	<polyline class="st3" points="121.3,42.2 121.3,100.4 70.9,129.5 20.5,100.4 	"/>
	<path class="st4" d="M123.4,39.4c1.1,0.6,1.4,1.8,1.4,3.1v58.2c0,1.3-0.7,2.4-1.8,3.1l-50.4,29.1c-0.5,0.3-1.2,0.5-1.8,0.5
		c-0.6,0-1.2-0.2-1.8-0.5l-50.4-29.1c-1.1-0.6-1.8-1.8-1.8-3.1 M24,98.6l46.9,27.1l46.9-27.1V44.5"/>
</g>
<g>
	<defs>
		<path id="SVGID_1_" d="M70,60.3l0.1,2.1l-2.1-0.3c-7.5-1-14.1-4.2-19.7-9.7l-2.7-2.7l-0.7,2c-1.5,4.5-0.5,9.2,2.6,12.4
			c1.7,1.8,1.3,2-1.6,1c-1-0.3-1.9-0.6-1.9-0.5c-0.3,0.3,0.7,4.1,1.5,5.6c1.1,2.1,3.3,4.1,5.7,5.4l2,1l-2.4,0c-2.3,0-2.4,0-2.2,0.9
			c0.8,2.7,4.1,5.6,7.8,6.9l2.6,0.9l-2.2,1.3c-3.3,1.9-7.2,3-11.1,3.1c-1.9,0-3.4,0.2-3.4,0.3c0,0.4,5.1,2.8,8,3.7
			c8.8,2.7,19.3,1.5,27.2-3.1c5.6-3.3,11.2-9.9,13.8-16.2C92.6,71,94,64.8,94,61.8c0-1.9,0.1-2.2,2.4-4.5c1.4-1.3,2.7-2.8,2.9-3.2
			c0.4-0.8,0.4-0.8-1.7-0.1c-3.5,1.3-4,1.1-2.3-0.8c1.3-1.3,2.8-3.8,2.8-4.5c0-0.1-0.6,0.1-1.3,0.5c-0.7,0.4-2.4,1-3.6,1.4l-2.2,0.7
			l-2-1.4c-1.1-0.8-2.7-1.6-3.5-1.8c-2.1-0.6-5.3-0.5-7.3,0.2C72.9,50.1,69.7,55,70,60.3z"/>
	</defs>
	<clipPath id="SVGID_2_">
		<use xlink:href="#SVGID_1_"  style="overflow:visible;"/>
	</clipPath>
	<rect x="32.3" y="37.8" class="st5" width="77.2" height="67.2"/>
</g>
<g>
</g>
<g>
</g>
<g>
</g>
<g>
</g>
<g>
</g>
<g>
</g>
</svg>
