<?xml version="1.0" encoding="utf-8"?>
<!-- Generator: Adobe Illustrator 20.1.0, SVG Export Plug-In . SVG Version: 6.00 Build 0)  -->
<svg version="1.1" id="Layer_1" xmlns="http://www.w3.org/2000/svg" xmlns:xlink="http://www.w3.org/1999/xlink" x="0px" y="0px"
	 viewBox="0 0 141.7 141.7" style="enable-background:new 0 0 141.7 141.7;" xml:space="preserve">
<style type="text/css">
	.st0{fill-rule:evenodd;clip-rule:evenodd;fill:#CF321F;}
	.st1{fill:#CF321F;}
	.st2{opacity:0.1;}
	.st3{fill-rule:evenodd;clip-rule:evenodd;fill:#13110C;}
	.st4{fill:#13110C;}
	.st5{clip-path:url(#SVGID_2_);fill-rule:evenodd;clip-rule:evenodd;fill:#FFFFFF;}
	.st6{clip-path:url(#SVGID_4_);fill-rule:evenodd;clip-rule:evenodd;fill:#FFFFFF;}
</style>
<image style="display:none;overflow:visible;" width="640" height="1136" xlink:href="E7FCD9D3693DE2D0.jpg"  transform="matrix(0 -0.9384 0.9384 0 -462.1656 370.8651)">
</image>
<g>
	<g>
		<polygon class="st0" points="121.3,100.2 70.9,129.3 20.5,100.2 20.5,42 70.9,12.9 121.3,42 		"/>
		<path class="st1" d="M70.9,132.8c-0.6,0-1.2-0.2-1.8-0.5l-50.4-29.1c-1.1-0.6-1.8-1.8-1.8-3.1V42c0-1.3,0.7-2.4,1.8-3.1L69.1,9.9
			c1.1-0.6,2.4-0.6,3.5,0L123,38.9c1.1,0.6,1.8,1.8,1.8,3.1v58.2c0,1.3-0.7,2.4-1.8,3.1l-50.4,29.1
			C72.1,132.7,71.5,132.8,70.9,132.8z M24,98.2l46.9,27.1l46.9-27.1V44L70.9,17L24,44V98.2z"/>
	</g>
	<g class="st2">
		<polyline class="st3" points="121.3,41.9 121.3,100.1 70.9,129.2 20.5,100.1 		"/>
		<path class="st4" d="M123.4,39.2c1.1,0.6,1.4,1.8,1.4,3.1v58.2c0,1.3-0.7,2.4-1.8,3.1l-50.4,29.1c-0.5,0.3-1.2,0.5-1.8,0.5
			c-0.6,0-1.2-0.2-1.8-0.5l-50.4-29.1c-1.1-0.6-1.8-1.8-1.8-3.1 M24,98.4l46.9,27.1l46.9-27.1V44.3"/>
	</g>
</g>
<g>
	<g>
		<defs>
			<path id="SVGID_1_" d="M85.1,82.5c0.2-0.3,0.5-0.4,1-0.4c0.4,0,0.7,0.1,0.9,0.4c0.2,0.2,0.3,0.7,0.3,1.3v1.4h-2.5v-1.4
				C84.8,83.2,84.9,82.7,85.1,82.5z M77.3,82.4c0.2,0.2,0.3,0.6,0.3,1.1v7.3c0,0.5-0.1,0.8-0.2,1c-0.2,0.2-0.4,0.3-0.7,0.3
				c-0.2,0-0.5-0.1-0.7-0.2c-0.2-0.1-0.4-0.3-0.7-0.5v-8.8c0.2-0.2,0.4-0.3,0.6-0.4c0.2-0.1,0.4-0.1,0.6-0.1
				C76.8,82,77.1,82.2,77.3,82.4z M84.8,90v-2.7h5.3v-3.6c0-1.3-0.3-2.4-1-3.1c-0.7-0.7-1.7-1.1-2.9-1.1c-1.2,0-2.3,0.4-3,1.2
				c-0.8,0.8-1.2,1.8-1.2,3v6.3c0,1.4,0.4,2.4,1.1,3.2c0.7,0.8,1.7,1.2,2.9,1.2c1.4,0,2.4-0.4,3.1-1.1c0.7-0.7,1-1.8,1-3.3v-0.7
				h-2.9V90c0,0.8-0.1,1.4-0.3,1.6c-0.2,0.2-0.5,0.4-1,0.4c-0.4,0-0.8-0.1-0.9-0.4C84.9,91.3,84.8,90.8,84.8,90z M77.9,94.3
				c0.8,0,1.5-0.3,1.9-0.8c0.4-0.5,0.7-1.3,0.7-2.3v-7.8c0-1.2-0.2-2-0.7-2.6c-0.5-0.6-1.1-0.9-2-0.9c-0.4,0-0.9,0.1-1.3,0.3
				c-0.4,0.2-0.8,0.6-1.2,1V75h-2.8v19.2h2.8V93c0.4,0.4,0.8,0.7,1.2,1C76.9,94.2,77.4,94.3,77.9,94.3z M67.6,92.6v1.6h2.8V80h-2.8
				v10.7c-0.3,0.3-0.6,0.6-0.9,0.8c-0.3,0.2-0.6,0.3-0.8,0.3c-0.3,0-0.4-0.1-0.6-0.2c-0.1-0.2-0.2-0.4-0.2-0.7V80h-2.8v11.8
				c0,0.8,0.2,1.5,0.5,1.9c0.3,0.4,0.8,0.6,1.5,0.6c0.5,0,1.1-0.1,1.6-0.4C66.6,93.6,67.1,93.1,67.6,92.6z M92.4,71.1
				c2.3,2.3,2.3,13.6,2.3,13.6c0,0,0,11.3-2.3,13.6c-2.3,2.3-21.5,2.3-21.5,2.3s-19.3,0-21.5-2.3C47,96,47,84.8,47,84.7
				c0-0.1,0-11.3,2.3-13.6c2.3-2.3,21.5-2.3,21.5-2.3C70.9,68.8,90.1,68.8,92.4,71.1z M58,94.1V77.7h3.2V75h-9.6v2.8h3.2v16.4H58z"
				/>
		</defs>
		<clipPath id="SVGID_2_">
			<use xlink:href="#SVGID_1_"  style="overflow:visible;"/>
		</clipPath>
		<rect x="39.1" y="60.8" class="st5" width="63.6" height="47.8"/>
	</g>
	<g>
		<defs>
			<path id="SVGID_3_" d="M82.9,62.9v-1.7c-0.6,0.6-1.2,1.1-1.8,1.4c-0.6,0.3-1.2,0.5-1.8,0.5c-0.7,0-1.3-0.2-1.6-0.7
				c-0.4-0.5-0.6-1.2-0.6-2.1v-13h3.1v11.9c0,0.4,0.1,0.6,0.2,0.8c0.1,0.2,0.3,0.2,0.6,0.2c0.2,0,0.5-0.1,0.9-0.3
				c0.3-0.2,0.7-0.5,1-0.8V47.3H86v15.6H82.9z M70,60.6c0.4,0,0.8-0.1,1-0.4c0.2-0.2,0.4-0.6,0.4-1v-8.5c0-0.3-0.1-0.6-0.4-0.8
				c-0.3-0.2-0.6-0.3-1-0.3c-0.4,0-0.7,0.1-0.9,0.3c-0.2,0.2-0.4,0.5-0.4,0.8v8.5c0,0.4,0.1,0.8,0.3,1C69.2,60.4,69.6,60.6,70,60.6z
				 M70.1,46.9c1.3,0,2.4,0.4,3.2,1.1c0.8,0.8,1.2,1.7,1.2,2.9v8c0,1.3-0.4,2.4-1.2,3.1c-0.8,0.8-1.9,1.1-3.4,1.1
				c-1.4,0-2.5-0.4-3.3-1.2c-0.8-0.8-1.2-1.8-1.2-3.2v-8.1c0-1.2,0.4-2.2,1.3-2.9C67.6,47.3,68.7,46.9,70.1,46.9z M53.4,41.8h3.5
				l2.3,8.4h0.2l2.2-8.4h3.6l-4.1,12.3v8.8h-3.5v-8.4L53.4,41.8z"/>
		</defs>
		<clipPath id="SVGID_4_">
			<use xlink:href="#SVGID_3_"  style="overflow:visible;"/>
		</clipPath>
		<rect x="45.4" y="33.8" class="st6" width="48.6" height="37.4"/>
	</g>
</g>
<g>
</g>
<g>
</g>
<g>
</g>
<g>
</g>
<g>
</g>
<g>
</g>
</svg>
