<?xml version="1.0" encoding="utf-8"?>
<!-- Generator: Adobe Illustrator 21.1.0, SVG Export Plug-In . SVG Version: 6.00 Build 0)  -->
<svg version="1.1" id="Ebene_1" xmlns="http://www.w3.org/2000/svg" xmlns:xlink="http://www.w3.org/1999/xlink" x="0px" y="0px"
	 viewBox="0 0 141.7 141.7" style="enable-background:new 0 0 141.7 141.7;" xml:space="preserve">
<style type="text/css">
	.st0{fill:#FFFFFF;}
</style>
<g>
	<g>
		<path class="st0" d="M39.3,129.3c0-0.5,0-0.9,0.1-1.4c0.1-2.3,0.4-4.6,0.8-6.9c0.4-2.2,0.9-4.4,1.5-6.6c0.6-2.2,1.1-4.4,1.8-6.6
			c1.3-4.4,2.9-8.7,4.8-12.8c0.4-0.7,0.7-1.5,1-2.1c1.3-2.8,2.9-5.4,4.8-7.8c0.4-0.5,4.4-5.5,4.8-5.3l3,1.4c2.2,0.9,4.5,1.8,6.7,2.5
			c3.2,0.9,6.4,1.8,9.8,2.2c1.6,0.2,3.3,0.3,4.9,0.3c0.8,0,2.1-0.3,3,0l2.1,0.7c2.4,1.5,4.8,2.9,7.3,4.3c2.9,1.8,5.7,3.6,8.6,5.4
			c1.5,0.9,3,1.8,4.5,2.6c0.7,0.4,2.7,1.7,3.4,1.6c1.8-0.4,3.3-1,4.6-2.4c2.6-2.6,5.2-6.8,5.7-10.5c0.3-2.2-1.7-4.4-3-6
			c-2.1-2.6-4.2-5-6.3-7.6c-2.3-2.7-4.8-5.4-7.1-8.1c-2.5-2.8-4.9-5.5-7.5-8.3c-2.3-2.6-4.7-5.1-7.1-7.7c-3.2-3.5-6.3-7.2-9.8-10.4
			l-8.3-7.6c-0.5-0.5,1.4-5.2,1.7-6.1c0.2-0.6,1.9-4.4,1.5-4.8c-1.4-1.6-4.9,0.8-6.2,1.5c-3.1,1.6-6.2,2.9-8.9,5.3
			c-0.1,0.1-1.5,1.4-2.6,2.4c-2.4,0.5-4.8,0.8-7.3,1.3c-3.3,0.7-6.6,1.8-9.9,2.3c-0.4,0.1-0.7,0.2-1.1,0.3c-6.5,1.8-13,4.7-18.7,8
			c-4.5,2.6-8.4,5.9-11.5,9.6c-3,3.6-5.4,7.6-7.1,11.7c-1.6,3.6-2.6,7.3-2.9,11C0,73.5,0,72.2,0,70.9C0,31.7,31.7,0,70.9,0
			s70.9,31.7,70.9,70.9s-31.7,70.9-70.9,70.9c-8.3,0-16.3-1.4-23.7-4.1c-3.1-1.1-4.7-1.8-7.7-3.3c-0.1,0,0-1.3-0.1-1.4
			c0-0.6-0.1-1.1-0.1-1.8C39.2,130.7,39.2,130,39.3,129.3z"/>
	</g>
</g>
</svg>
